<!-- Generated by IcoMoon.io -->
<svg version="1.1" xmlns="http://www.w3.org/2000/svg" width="36" height="32" viewBox="0 0 36 32">
<title>NewBoidLogo</title>
<path fill="#fff" d="M28.84 15.51c0 5.926-4.804 10.73-10.73 10.73s-10.73-4.804-10.73-10.73c0-5.926 4.804-10.73 10.73-10.73s10.73 4.804 10.73 10.73z"></path>
<path fill="#089cfc" d="M4.543 6.306l8.87 14.345c0.069 0.111 0.089 0.245 0.056 0.372l-1.377 5.247 0.833 1.442c0.14 0.015 0.286-0.030 0.393-0.141l6.391-6.599h4.051l4.787-7.955 3.292-0 0.34-0.589c-0.021-0.088-0.068-0.172-0.14-0.238l-3.492-3.224-9.133 4.051-9.428-7.439h-5.037c-0.374 0-0.602 0.41-0.406 0.728z"></path>
</svg>
