<svg id="svg" version="1.1" xmlns="http://www.w3.org/2000/svg" xmlns:xlink="http://www.w3.org/1999/xlink" width="400" height="196.875" viewBox="0, 0, 400,196.875"><g id="svgg"><path id="path0" d="M19.695 32.102 C 19.695 32.211,19.447 32.299,19.143 32.299 C 18.545 32.299,17.532 32.701,17.530 32.939 C 17.529 33.021,17.437 33.087,17.326 33.087 C 17.008 33.087,15.362 34.816,15.362 35.150 C 15.362 35.315,15.284 35.451,15.188 35.451 C 14.512 35.451,13.916 117.134,14.549 122.994 C 14.666 124.077,14.816 125.495,14.882 126.145 C 14.948 126.795,15.083 127.411,15.182 127.514 C 15.281 127.616,15.362 128.032,15.362 128.437 C 15.362 128.843,15.451 129.229,15.559 129.296 C 15.667 129.363,15.756 129.717,15.756 130.084 C 15.756 130.450,15.844 130.805,15.953 130.871 C 16.061 130.938,16.150 131.249,16.150 131.561 C 16.150 131.873,16.238 132.183,16.347 132.250 C 16.455 132.317,16.544 132.583,16.544 132.841 C 16.544 133.099,16.632 133.365,16.741 133.432 C 16.849 133.499,16.937 133.765,16.937 134.023 C 16.937 134.281,17.026 134.547,17.134 134.613 C 17.243 134.680,17.331 134.952,17.331 135.216 C 17.331 135.480,17.420 135.697,17.528 135.697 C 17.637 135.697,17.725 135.874,17.725 136.091 C 17.725 136.307,17.814 136.484,17.922 136.484 C 18.031 136.484,18.119 136.750,18.119 137.075 C 18.119 137.400,18.208 137.666,18.316 137.666 C 18.424 137.666,18.513 137.843,18.513 138.060 C 18.513 138.277,18.602 138.454,18.710 138.454 C 18.818 138.454,18.907 138.631,18.907 138.848 C 18.907 139.065,18.996 139.242,19.104 139.242 C 19.212 139.242,19.301 139.419,19.301 139.636 C 19.301 139.852,19.389 140.030,19.498 140.030 C 19.606 140.030,19.695 140.207,19.695 140.423 C 19.695 140.640,19.783 140.817,19.892 140.817 C 20.000 140.817,20.089 140.954,20.089 141.121 C 20.089 141.288,20.266 141.615,20.483 141.847 C 20.699 142.080,20.876 142.386,20.876 142.529 C 20.876 142.671,20.965 142.787,21.073 142.787 C 21.182 142.787,21.270 142.944,21.270 143.137 C 21.270 143.330,21.448 143.615,21.664 143.772 C 21.881 143.928,22.058 144.194,22.058 144.362 C 22.058 144.531,22.235 144.797,22.452 144.953 C 22.669 145.109,22.846 145.375,22.846 145.544 C 22.846 145.713,23.023 145.979,23.240 146.135 C 23.456 146.291,23.634 146.521,23.634 146.647 C 23.634 146.773,23.988 147.240,24.421 147.687 C 24.855 148.133,25.209 148.585,25.209 148.690 C 25.209 148.940,30.479 154.210,30.729 154.210 C 30.834 154.210,31.286 154.564,31.732 154.998 C 32.179 155.431,32.626 155.785,32.726 155.785 C 32.826 155.785,33.123 156.000,33.385 156.262 C 33.648 156.525,34.042 156.797,34.263 156.867 C 34.483 156.936,34.663 157.065,34.663 157.153 C 34.663 157.241,34.929 157.423,35.254 157.558 C 35.579 157.692,35.844 157.880,35.844 157.976 C 35.844 158.071,35.931 158.149,36.038 158.149 C 36.144 158.149,36.817 158.507,37.532 158.945 C 38.247 159.383,39.091 159.793,39.407 159.856 C 39.722 159.919,39.980 160.048,39.980 160.143 C 39.980 160.238,40.158 160.315,40.374 160.315 C 40.591 160.315,40.768 160.404,40.768 160.512 C 40.768 160.620,40.945 160.709,41.162 160.709 C 41.379 160.709,41.556 160.798,41.556 160.906 C 41.556 161.014,41.728 161.103,41.938 161.103 C 42.148 161.103,42.375 161.192,42.442 161.300 C 42.509 161.408,42.780 161.497,43.045 161.497 C 43.309 161.497,43.525 161.585,43.525 161.694 C 43.525 161.802,43.704 161.891,43.922 161.891 C 44.305 161.891,44.495 161.961,45.443 162.451 C 45.685 162.576,46.150 162.678,46.477 162.678 C 46.803 162.678,47.070 162.767,47.070 162.875 C 47.070 162.984,47.336 163.072,47.661 163.072 C 47.986 163.072,48.252 163.161,48.252 163.269 C 48.252 163.378,48.607 163.466,49.040 163.466 C 49.473 163.466,49.828 163.555,49.828 163.663 C 49.828 163.772,50.271 163.860,50.812 163.860 C 51.354 163.860,51.797 163.949,51.797 164.057 C 51.797 164.167,52.322 164.254,52.979 164.254 C 53.635 164.254,54.161 164.342,54.161 164.451 C 54.161 164.571,55.080 164.648,56.524 164.648 C 57.968 164.648,58.887 164.725,58.887 164.845 C 58.887 164.966,59.905 165.042,61.546 165.042 C 63.187 165.042,64.205 164.966,64.205 164.845 C 64.205 164.725,65.087 164.648,66.458 164.648 C 67.748 164.648,68.763 164.564,68.833 164.451 C 68.900 164.343,69.481 164.254,70.125 164.254 C 70.774 164.254,71.295 164.166,71.295 164.057 C 71.295 163.949,71.689 163.860,72.170 163.860 C 72.651 163.860,73.099 163.772,73.166 163.663 C 73.233 163.555,73.587 163.466,73.954 163.466 C 74.320 163.466,74.675 163.378,74.742 163.269 C 74.808 163.161,75.124 163.072,75.442 163.072 C 75.761 163.072,76.022 162.984,76.022 162.875 C 76.022 162.767,76.282 162.678,76.601 162.678 C 76.919 162.678,77.235 162.590,77.302 162.482 C 77.369 162.373,77.640 162.285,77.904 162.285 C 78.169 162.285,78.385 162.196,78.385 162.088 C 78.385 161.979,78.651 161.891,78.976 161.891 C 79.301 161.891,79.567 161.802,79.567 161.694 C 79.567 161.585,79.739 161.497,79.949 161.497 C 80.159 161.497,80.386 161.408,80.453 161.300 C 80.520 161.192,80.747 161.103,80.957 161.103 C 81.167 161.103,81.339 161.014,81.339 160.906 C 81.339 160.798,81.473 160.709,81.637 160.709 C 81.929 160.709,82.720 160.332,82.915 160.099 C 82.969 160.035,83.255 159.923,83.551 159.850 C 83.847 159.778,84.537 159.454,85.086 159.131 C 85.634 158.807,86.168 158.543,86.272 158.543 C 86.375 158.543,86.460 158.454,86.460 158.346 C 86.460 158.237,86.576 158.149,86.718 158.149 C 86.860 158.149,87.167 157.971,87.399 157.755 C 87.632 157.538,87.939 157.361,88.082 157.361 C 88.225 157.361,88.470 157.184,88.626 156.967 C 88.782 156.750,89.001 156.573,89.113 156.573 C 89.224 156.572,89.626 156.307,90.005 155.982 C 90.384 155.658,90.768 155.392,90.857 155.392 C 90.947 155.392,91.361 155.037,91.777 154.604 C 92.194 154.170,92.629 153.816,92.746 153.816 C 92.999 153.816,97.489 149.323,97.489 149.069 C 97.489 148.972,97.843 148.527,98.277 148.081 C 98.710 147.634,99.065 147.190,99.065 147.094 C 99.065 146.998,99.330 146.641,99.655 146.301 C 99.980 145.961,100.246 145.603,100.246 145.507 C 100.246 145.410,100.423 145.140,100.640 144.908 C 100.857 144.675,101.034 144.369,101.034 144.227 C 101.034 144.085,101.112 143.968,101.207 143.968 C 101.302 143.968,101.490 143.703,101.625 143.378 C 101.759 143.053,101.947 142.787,102.043 142.787 C 102.138 142.787,102.216 142.610,102.216 142.393 C 102.216 142.176,102.282 141.998,102.363 141.997 C 102.445 141.997,102.608 141.797,102.727 141.554 C 103.686 139.596,104.627 137.707,104.784 137.423 C 104.888 137.235,104.973 136.947,104.973 136.783 C 104.973 136.619,105.042 136.484,105.126 136.484 C 105.293 136.484,105.958 134.401,105.958 133.877 C 105.958 133.699,106.046 133.499,106.155 133.432 C 106.263 133.365,106.352 133.099,106.352 132.841 C 106.352 132.583,106.440 132.317,106.548 132.250 C 106.657 132.183,106.745 131.823,106.745 131.451 C 106.745 131.078,106.834 130.773,106.942 130.773 C 107.051 130.773,107.139 130.419,107.139 129.985 C 107.139 129.552,107.228 129.197,107.336 129.197 C 107.445 129.197,107.533 128.754,107.533 128.213 C 107.533 127.671,107.622 127.228,107.730 127.228 C 107.840 127.228,107.927 126.703,107.927 126.046 C 107.927 125.390,108.015 124.865,108.124 124.865 C 108.244 124.865,108.321 123.946,108.321 122.501 C 108.321 121.057,108.398 120.138,108.518 120.138 C 108.639 120.138,108.715 119.186,108.715 117.676 C 108.715 116.166,108.639 115.214,108.518 115.214 C 108.398 115.214,108.321 114.295,108.321 112.851 C 108.321 111.407,108.244 110.487,108.124 110.487 C 108.015 110.487,107.927 109.966,107.927 109.317 C 107.927 108.674,107.839 108.093,107.730 108.026 C 107.622 107.959,107.533 107.510,107.533 107.029 C 107.533 106.548,107.445 106.155,107.336 106.155 C 107.228 106.155,107.139 105.805,107.139 105.378 C 107.139 104.952,107.051 104.547,106.942 104.481 C 106.834 104.414,106.745 104.054,106.745 103.681 C 106.745 103.308,106.657 103.003,106.548 103.003 C 106.440 103.003,106.352 102.738,106.352 102.413 C 106.352 102.088,106.263 101.822,106.155 101.822 C 106.046 101.822,105.958 101.627,105.958 101.388 C 105.958 100.781,105.312 98.671,105.126 98.671 C 105.042 98.671,104.972 98.516,104.972 98.326 C 104.971 97.979,102.321 92.570,102.056 92.374 C 101.979 92.317,101.703 91.849,101.443 91.334 C 101.184 90.820,100.897 90.399,100.806 90.399 C 100.715 90.399,100.640 90.273,100.640 90.120 C 100.640 89.966,100.568 89.811,100.481 89.775 C 100.393 89.739,100.047 89.311,99.712 88.823 C 99.376 88.336,98.916 87.741,98.689 87.502 C 98.462 87.263,98.277 87.013,98.277 86.947 C 98.277 86.759,91.824 80.355,91.635 80.355 C 91.542 80.355,91.075 80.000,90.596 79.567 C 90.117 79.133,89.631 78.779,89.515 78.779 C 89.399 78.779,89.176 78.602,89.020 78.385 C 88.864 78.168,88.598 77.991,88.429 77.991 C 88.261 77.991,87.995 77.814,87.839 77.597 C 87.682 77.381,87.397 77.203,87.204 77.203 C 87.011 77.203,86.854 77.115,86.854 77.006 C 86.854 76.898,86.696 76.809,86.503 76.809 C 86.311 76.809,86.025 76.632,85.869 76.416 C 85.713 76.199,85.427 76.022,85.235 76.022 C 85.042 76.022,84.884 75.933,84.884 75.825 C 84.884 75.716,84.707 75.628,84.490 75.628 C 84.274 75.628,84.097 75.539,84.097 75.431 C 84.097 75.323,83.919 75.234,83.703 75.234 C 83.486 75.234,83.309 75.145,83.309 75.037 C 83.309 74.929,83.131 74.840,82.915 74.840 C 82.698 74.840,82.521 74.751,82.521 74.643 C 82.521 74.535,82.344 74.446,82.127 74.446 C 81.910 74.446,81.733 74.357,81.733 74.249 C 81.733 74.141,81.559 74.052,81.345 74.052 C 81.132 74.052,80.642 73.875,80.256 73.658 C 79.870 73.442,79.380 73.264,79.167 73.264 C 78.953 73.264,78.779 73.176,78.779 73.067 C 78.779 72.959,78.513 72.871,78.188 72.871 C 77.863 72.871,77.597 72.782,77.597 72.674 C 77.597 72.565,77.337 72.477,77.018 72.477 C 76.699 72.477,76.384 72.388,76.317 72.280 C 76.250 72.171,75.890 72.083,75.518 72.083 C 75.145 72.083,74.840 71.994,74.840 71.886 C 74.840 71.777,74.485 71.689,74.052 71.689 C 73.619 71.689,73.264 71.600,73.264 71.492 C 73.264 71.384,72.827 71.295,72.291 71.295 C 71.756 71.295,71.263 71.206,71.196 71.098 C 71.130 70.990,70.415 70.901,69.609 70.901 C 68.764 70.901,68.144 70.818,68.144 70.704 C 68.144 70.578,66.273 70.507,62.925 70.507 C 59.577 70.507,57.706 70.578,57.706 70.704 C 57.706 70.818,57.086 70.901,56.240 70.901 C 55.434 70.901,54.720 70.990,54.653 71.098 C 54.586 71.206,54.093 71.295,53.558 71.295 C 53.023 71.295,52.585 71.384,52.585 71.492 C 52.585 71.600,52.230 71.689,51.797 71.689 C 51.364 71.689,51.009 71.777,51.009 71.886 C 51.009 71.994,50.704 72.083,50.332 72.083 C 49.959 72.083,49.599 72.171,49.532 72.280 C 49.465 72.388,49.150 72.477,48.831 72.477 C 48.513 72.477,48.252 72.565,48.252 72.674 C 48.252 72.782,47.986 72.871,47.661 72.871 C 47.336 72.871,47.070 72.959,47.070 73.067 C 47.070 73.176,46.898 73.264,46.688 73.264 C 46.478 73.264,46.251 73.353,46.184 73.461 C 46.117 73.570,45.846 73.658,45.582 73.658 C 45.317 73.658,45.101 73.747,45.101 73.855 C 45.101 73.964,44.924 74.052,44.707 74.052 C 44.490 74.052,44.313 74.141,44.313 74.249 C 44.313 74.357,44.136 74.446,43.919 74.446 C 43.703 74.446,43.525 74.535,43.525 74.643 C 43.525 74.751,43.348 74.840,43.131 74.840 C 42.915 74.840,42.738 74.929,42.738 75.037 C 42.738 75.145,42.560 75.234,42.344 75.234 C 42.127 75.234,41.950 75.323,41.950 75.431 C 41.950 75.539,41.773 75.628,41.556 75.628 C 41.339 75.628,41.162 75.716,41.162 75.825 C 41.162 75.933,40.985 76.022,40.768 76.022 C 40.551 76.022,40.374 76.110,40.374 76.219 C 40.374 76.327,40.258 76.416,40.116 76.416 C 39.974 76.416,39.686 76.571,39.476 76.760 C 39.266 76.950,38.850 77.231,38.552 77.384 C 38.255 77.538,38.011 77.737,38.011 77.827 C 38.011 77.917,37.895 77.991,37.753 77.991 C 37.610 77.991,37.304 78.168,37.071 78.385 C 36.839 78.602,36.601 78.779,36.542 78.779 C 36.484 78.779,36.070 79.133,35.624 79.567 C 35.177 80.000,34.733 80.355,34.637 80.355 C 34.413 80.355,29.148 85.613,29.148 85.837 C 29.148 85.929,28.972 86.165,28.756 86.360 C 28.364 86.714,28.363 86.669,28.295 62.018 C 28.230 38.661,28.171 35.844,27.748 35.844 C 27.652 35.844,27.573 35.703,27.573 35.531 C 27.573 35.122,25.144 32.693,24.735 32.693 C 24.563 32.693,24.421 32.605,24.421 32.496 C 24.421 32.388,24.067 32.299,23.634 32.299 C 23.200 32.299,22.846 32.211,22.846 32.102 C 22.846 31.988,22.189 31.905,21.270 31.905 C 20.351 31.905,19.695 31.988,19.695 32.102 M376.859 32.102 C 376.792 32.211,376.476 32.299,376.158 32.299 C 375.839 32.299,375.579 32.388,375.579 32.496 C 375.579 32.605,375.401 32.693,375.185 32.693 C 374.968 32.693,374.791 32.782,374.791 32.890 C 374.791 32.999,374.655 33.087,374.490 33.087 C 374.099 33.087,372.427 34.759,372.427 35.150 C 372.427 35.315,372.339 35.451,372.230 35.451 C 372.122 35.451,372.033 35.628,372.033 35.844 C 372.033 36.061,371.945 36.238,371.837 36.238 C 371.706 36.238,371.640 44.806,371.640 61.546 C 371.640 78.287,371.573 86.854,371.443 86.854 C 371.334 86.854,371.246 86.759,371.246 86.644 C 371.246 86.529,370.803 86.003,370.261 85.475 C 369.719 84.948,369.276 84.420,369.276 84.302 C 369.276 84.041,367.192 81.930,366.934 81.930 C 366.833 81.930,366.210 81.398,365.550 80.748 C 364.890 80.098,364.307 79.567,364.255 79.567 C 364.158 79.567,363.531 79.074,363.064 78.631 C 362.922 78.496,362.710 78.385,362.594 78.385 C 362.478 78.385,362.383 78.311,362.383 78.221 C 362.383 78.131,362.139 77.932,361.841 77.778 C 361.544 77.625,361.128 77.344,360.918 77.154 C 360.708 76.965,360.420 76.809,360.278 76.809 C 360.136 76.809,360.020 76.721,360.020 76.613 C 360.020 76.504,359.842 76.416,359.626 76.416 C 359.409 76.416,359.232 76.327,359.232 76.219 C 359.232 76.110,359.099 76.022,358.936 76.022 C 358.774 76.022,358.641 75.950,358.641 75.861 C 358.641 75.773,358.331 75.580,357.952 75.431 C 357.573 75.282,357.262 75.088,357.262 75.000 C 357.262 74.912,357.090 74.840,356.880 74.840 C 356.670 74.840,356.443 74.751,356.376 74.643 C 356.309 74.535,356.082 74.446,355.872 74.446 C 355.662 74.446,355.490 74.357,355.490 74.249 C 355.490 74.141,355.268 74.052,354.998 74.052 C 354.727 74.052,354.505 73.964,354.505 73.855 C 354.505 73.747,354.328 73.658,354.111 73.658 C 353.895 73.658,353.717 73.570,353.717 73.461 C 353.717 73.353,353.452 73.264,353.127 73.264 C 352.802 73.264,352.536 73.176,352.536 73.067 C 352.536 72.959,352.270 72.871,351.945 72.871 C 351.620 72.871,351.354 72.782,351.354 72.674 C 351.354 72.565,351.088 72.477,350.763 72.477 C 350.438 72.477,350.172 72.388,350.172 72.280 C 350.172 72.171,349.867 72.083,349.495 72.083 C 349.122 72.083,348.762 71.994,348.695 71.886 C 348.628 71.777,348.224 71.689,347.797 71.689 C 347.370 71.689,347.021 71.600,347.021 71.492 C 347.021 71.384,346.578 71.295,346.036 71.295 C 345.495 71.295,345.052 71.206,345.052 71.098 C 345.052 70.986,344.465 70.901,343.685 70.901 C 342.933 70.901,342.263 70.812,342.196 70.704 C 342.030 70.436,331.726 70.436,331.561 70.704 C 331.494 70.812,330.824 70.901,330.072 70.901 C 329.292 70.901,328.705 70.986,328.705 71.098 C 328.705 71.206,328.223 71.295,327.633 71.295 C 327.044 71.295,326.507 71.384,326.440 71.492 C 326.373 71.600,326.019 71.689,325.652 71.689 C 325.286 71.689,324.932 71.777,324.865 71.886 C 324.798 71.994,324.487 72.083,324.175 72.083 C 323.863 72.083,323.553 72.171,323.486 72.280 C 323.419 72.388,323.109 72.477,322.797 72.477 C 322.484 72.477,322.174 72.565,322.107 72.674 C 322.040 72.782,321.812 72.871,321.601 72.871 C 321.389 72.871,321.040 72.959,320.825 73.067 C 320.609 73.176,320.257 73.353,320.042 73.461 C 319.827 73.570,319.517 73.658,319.353 73.658 C 319.189 73.658,319.055 73.747,319.055 73.855 C 319.055 73.964,318.877 74.052,318.661 74.052 C 318.444 74.052,318.267 74.141,318.267 74.249 C 318.267 74.357,318.051 74.446,317.786 74.446 C 317.522 74.446,317.251 74.535,317.184 74.643 C 317.117 74.751,316.890 74.840,316.680 74.840 C 316.469 74.840,316.297 74.929,316.297 75.037 C 316.297 75.145,316.161 75.234,315.994 75.234 C 315.827 75.234,315.500 75.411,315.267 75.628 C 315.035 75.844,314.728 76.022,314.586 76.022 C 314.444 76.022,314.328 76.110,314.328 76.219 C 314.328 76.327,314.151 76.416,313.934 76.416 C 313.717 76.416,313.540 76.504,313.540 76.613 C 313.540 76.721,313.382 76.809,313.190 76.809 C 312.997 76.809,312.712 76.987,312.555 77.203 C 312.399 77.420,312.133 77.597,311.965 77.597 C 311.796 77.597,311.530 77.774,311.374 77.991 C 311.218 78.208,310.976 78.385,310.836 78.385 C 310.697 78.385,310.304 78.651,309.964 78.976 C 309.624 79.301,309.262 79.567,309.159 79.567 C 309.056 79.567,308.723 79.833,308.419 80.158 C 308.116 80.483,307.776 80.748,307.663 80.748 C 307.427 80.748,302.118 85.971,302.116 86.206 C 302.115 86.291,301.765 86.716,301.338 87.149 C 300.910 87.582,300.557 88.040,300.551 88.167 C 300.546 88.293,300.468 88.426,300.379 88.462 C 300.151 88.554,298.178 91.518,298.178 91.769 C 298.178 91.882,298.104 91.974,298.012 91.974 C 297.921 91.974,297.633 92.395,297.372 92.910 C 297.111 93.424,296.832 93.875,296.750 93.911 C 296.669 93.947,296.603 94.147,296.603 94.354 C 296.603 94.562,296.514 94.732,296.406 94.732 C 296.297 94.732,296.209 94.909,296.209 95.126 C 296.209 95.342,296.120 95.519,296.012 95.519 C 295.903 95.519,295.815 95.697,295.815 95.913 C 295.815 96.130,295.726 96.307,295.618 96.307 C 295.510 96.307,295.421 96.424,295.421 96.566 C 295.421 96.708,295.199 97.284,294.929 97.845 C 294.658 98.406,294.436 99.038,294.436 99.249 C 294.436 99.460,294.348 99.687,294.239 99.754 C 294.131 99.821,294.042 100.136,294.042 100.455 C 294.042 100.773,293.954 101.034,293.845 101.034 C 293.737 101.034,293.648 101.300,293.648 101.625 C 293.648 101.950,293.560 102.216,293.452 102.216 C 293.343 102.216,293.255 102.482,293.255 102.806 C 293.255 103.131,293.166 103.397,293.058 103.397 C 292.949 103.397,292.861 103.752,292.861 104.185 C 292.861 104.618,292.772 104.973,292.664 104.973 C 292.555 104.973,292.467 105.327,292.467 105.761 C 292.467 106.194,292.378 106.548,292.270 106.548 C 292.160 106.548,292.073 107.074,292.073 107.730 C 292.073 108.387,291.985 108.912,291.876 108.912 C 291.763 108.912,291.679 109.503,291.679 110.290 C 291.679 111.078,291.595 111.669,291.482 111.669 C 291.355 111.669,291.285 113.766,291.285 117.566 C 291.285 121.285,291.358 123.508,291.482 123.584 C 291.590 123.651,291.679 124.321,291.679 125.073 C 291.679 125.853,291.764 126.440,291.876 126.440 C 291.984 126.440,292.073 126.883,292.073 127.425 C 292.073 127.967,292.161 128.410,292.270 128.410 C 292.378 128.410,292.467 128.803,292.467 129.284 C 292.467 129.765,292.555 130.214,292.664 130.281 C 292.772 130.348,292.861 130.658,292.861 130.970 C 292.861 131.282,292.949 131.592,293.058 131.659 C 293.166 131.726,293.255 132.042,293.255 132.360 C 293.255 132.679,293.343 132.939,293.452 132.939 C 293.560 132.939,293.648 133.205,293.648 133.530 C 293.648 133.855,293.737 134.121,293.845 134.121 C 293.954 134.121,294.042 134.369,294.042 134.673 C 294.042 134.976,294.120 135.308,294.215 135.411 C 294.311 135.514,294.500 135.953,294.636 136.386 C 294.772 136.819,295.181 137.794,295.546 138.552 C 295.910 139.310,296.209 140.041,296.209 140.177 C 296.209 140.312,296.275 140.425,296.356 140.426 C 296.438 140.428,296.721 140.871,296.986 141.411 C 297.251 141.951,297.539 142.393,297.626 142.393 C 297.713 142.393,297.784 142.570,297.784 142.787 C 297.784 143.003,297.862 143.181,297.957 143.181 C 298.053 143.181,298.241 143.447,298.375 143.772 C 298.510 144.097,298.698 144.362,298.793 144.362 C 298.888 144.362,298.966 144.473,298.966 144.609 C 298.967 144.744,299.232 145.165,299.557 145.544 C 299.881 145.923,300.147 146.309,300.147 146.401 C 300.148 146.492,300.414 146.816,300.739 147.120 C 301.064 147.423,301.329 147.765,301.329 147.878 C 301.329 148.355,307.974 154.998,308.450 154.998 C 308.543 154.998,308.898 155.263,309.238 155.588 C 309.578 155.913,309.936 156.179,310.033 156.179 C 310.130 156.179,310.425 156.394,310.687 156.656 C 310.949 156.919,311.344 157.191,311.564 157.260 C 311.784 157.330,311.965 157.470,311.965 157.571 C 311.965 157.672,312.142 157.755,312.358 157.755 C 312.575 157.755,312.752 157.833,312.752 157.928 C 312.752 158.023,313.018 158.211,313.343 158.346 C 313.668 158.480,313.934 158.668,313.934 158.763 C 313.934 158.859,314.111 158.936,314.328 158.936 C 314.545 158.936,314.722 159.009,314.722 159.097 C 314.722 159.293,316.003 159.921,316.403 159.921 C 316.561 159.921,316.691 160.010,316.691 160.118 C 316.691 160.226,316.869 160.315,317.085 160.315 C 317.302 160.315,317.479 160.404,317.479 160.512 C 317.479 160.620,317.701 160.709,317.971 160.709 C 318.242 160.709,318.464 160.798,318.464 160.906 C 318.464 161.014,318.641 161.103,318.858 161.103 C 319.074 161.103,319.252 161.192,319.252 161.300 C 319.252 161.408,319.473 161.497,319.744 161.497 C 320.015 161.497,320.236 161.585,320.236 161.694 C 320.236 161.802,320.458 161.891,320.729 161.891 C 321.000 161.891,321.221 161.979,321.221 162.088 C 321.221 162.196,321.487 162.285,321.812 162.285 C 322.137 162.285,322.403 162.373,322.403 162.482 C 322.403 162.590,322.669 162.678,322.994 162.678 C 323.319 162.678,323.584 162.767,323.584 162.875 C 323.584 162.984,323.939 163.072,324.372 163.072 C 324.806 163.072,325.160 163.161,325.160 163.269 C 325.160 163.378,325.515 163.466,325.948 163.466 C 326.381 163.466,326.736 163.555,326.736 163.663 C 326.736 163.772,327.129 163.860,327.610 163.860 C 328.091 163.860,328.540 163.949,328.607 164.057 C 328.674 164.165,329.255 164.254,329.898 164.254 C 330.547 164.254,331.068 164.342,331.068 164.451 C 331.068 164.570,331.922 164.648,333.235 164.648 C 334.548 164.648,335.401 164.726,335.401 164.845 C 335.401 164.967,336.484 165.042,338.257 165.042 C 340.030 165.042,341.113 164.967,341.113 164.845 C 341.113 164.726,341.966 164.648,343.279 164.648 C 344.592 164.648,345.446 164.570,345.446 164.451 C 345.446 164.342,345.971 164.254,346.627 164.254 C 347.284 164.254,347.809 164.167,347.809 164.057 C 347.809 163.949,348.252 163.860,348.794 163.860 C 349.335 163.860,349.778 163.772,349.778 163.663 C 349.778 163.555,350.133 163.466,350.566 163.466 C 351.000 163.466,351.354 163.378,351.354 163.269 C 351.354 163.161,351.709 163.072,352.142 163.072 C 352.575 163.072,352.930 162.984,352.930 162.875 C 352.930 162.767,353.195 162.678,353.520 162.678 C 353.845 162.678,354.111 162.590,354.111 162.482 C 354.111 162.373,354.377 162.285,354.702 162.285 C 355.027 162.285,355.293 162.196,355.293 162.088 C 355.293 161.979,355.465 161.891,355.675 161.891 C 355.885 161.891,356.112 161.802,356.179 161.694 C 356.246 161.585,356.517 161.497,356.782 161.497 C 357.046 161.497,357.262 161.408,357.262 161.300 C 357.262 161.192,357.440 161.103,357.656 161.103 C 357.873 161.103,358.050 161.014,358.050 160.906 C 358.050 160.798,358.272 160.709,358.543 160.709 C 358.813 160.709,359.035 160.620,359.035 160.512 C 359.035 160.404,359.212 160.315,359.429 160.315 C 359.645 160.315,359.823 160.226,359.823 160.118 C 359.823 160.010,359.954 159.921,360.115 159.921 C 360.441 159.921,362.725 158.747,363.572 158.144 C 363.872 157.930,364.195 157.755,364.290 157.755 C 364.385 157.755,364.590 157.578,364.746 157.361 C 364.903 157.144,365.168 156.967,365.337 156.967 C 365.506 156.967,365.772 156.790,365.928 156.573 C 366.084 156.356,366.308 156.179,366.425 156.179 C 366.543 156.179,366.978 155.869,367.391 155.490 C 367.805 155.111,368.226 154.801,368.327 154.801 C 368.587 154.801,375.185 148.151,375.185 147.889 C 375.185 147.769,375.451 147.423,375.775 147.120 C 376.100 146.816,376.366 146.459,376.366 146.325 C 376.366 146.192,376.522 145.939,376.712 145.764 C 376.903 145.589,377.183 145.202,377.336 144.904 C 377.489 144.606,377.688 144.362,377.778 144.362 C 377.868 144.362,377.942 144.205,377.942 144.012 C 377.942 143.819,378.119 143.534,378.336 143.378 C 378.552 143.221,378.730 142.943,378.730 142.760 C 378.730 142.576,378.796 142.396,378.877 142.360 C 379.062 142.278,379.702 141.229,379.848 140.768 C 379.908 140.579,380.036 140.423,380.131 140.423 C 380.227 140.423,380.305 140.246,380.305 140.030 C 380.305 139.813,380.394 139.636,380.502 139.636 C 380.611 139.636,380.699 139.458,380.699 139.242 C 380.699 139.025,380.788 138.848,380.896 138.848 C 381.004 138.848,381.093 138.676,381.093 138.466 C 381.093 138.255,381.182 138.029,381.290 137.962 C 381.398 137.895,381.487 137.624,381.487 137.359 C 381.487 137.095,381.576 136.878,381.684 136.878 C 381.792 136.878,381.881 136.701,381.881 136.484 C 381.881 136.268,381.969 136.091,382.078 136.091 C 382.186 136.091,382.275 135.887,382.275 135.638 C 382.275 135.388,382.348 135.100,382.437 134.998 C 382.527 134.895,382.713 134.412,382.851 133.924 C 382.988 133.437,383.181 132.884,383.279 132.696 C 383.376 132.508,383.456 132.181,383.456 131.969 C 383.456 131.757,383.545 131.529,383.653 131.462 C 383.762 131.395,383.850 131.041,383.850 130.675 C 383.850 130.308,383.930 129.959,384.026 129.900 C 384.198 129.794,384.346 129.047,384.556 127.228 C 384.613 126.741,384.739 126.164,384.838 125.948 C 385.233 125.078,385.271 121.197,385.279 80.256 C 385.287 40.072,385.247 36.197,384.814 35.930 C 384.717 35.870,384.638 35.682,384.638 35.511 C 384.638 35.341,384.481 35.058,384.288 34.883 C 384.096 34.708,383.784 34.321,383.595 34.023 C 383.405 33.725,383.139 33.481,383.003 33.481 C 382.867 33.481,382.628 33.304,382.472 33.087 C 382.316 32.871,382.030 32.693,381.837 32.693 C 381.645 32.693,381.487 32.605,381.487 32.496 C 381.487 32.388,381.132 32.299,380.699 32.299 C 380.266 32.299,379.911 32.211,379.911 32.102 C 379.911 31.989,379.292 31.905,378.446 31.905 C 377.640 31.905,376.926 31.994,376.859 32.102 M255.244 35.647 C 255.244 35.756,254.801 35.844,254.259 35.844 C 253.717 35.844,253.274 35.933,253.274 36.041 C 253.274 36.150,253.159 36.238,253.018 36.238 C 252.656 36.238,251.702 36.702,251.700 36.878 C 251.699 36.960,251.559 37.026,251.389 37.026 C 251.056 37.026,251.032 37.045,249.580 38.457 C 246.950 41.014,246.363 46.175,248.280 49.882 C 248.814 50.914,250.661 52.971,251.059 52.976 C 251.194 52.977,251.305 53.067,251.305 53.176 C 251.305 53.284,251.438 53.373,251.600 53.373 C 251.763 53.373,251.896 53.461,251.896 53.570 C 251.896 53.678,252.068 53.767,252.278 53.767 C 252.488 53.767,252.715 53.855,252.782 53.964 C 252.849 54.072,253.164 54.161,253.483 54.161 C 253.801 54.161,254.062 54.249,254.062 54.357 C 254.062 54.479,255.047 54.554,256.622 54.554 C 258.198 54.554,259.183 54.479,259.183 54.357 C 259.183 54.249,259.443 54.161,259.762 54.161 C 260.080 54.161,260.396 54.072,260.463 53.964 C 260.530 53.855,260.740 53.767,260.930 53.767 C 261.120 53.767,261.465 53.589,261.698 53.373 C 261.930 53.156,262.207 52.979,262.313 52.979 C 262.567 52.979,264.697 50.843,264.697 50.589 C 264.697 50.480,264.834 50.253,265.002 50.085 C 265.170 49.917,265.358 49.525,265.421 49.213 C 265.483 48.901,265.612 48.646,265.707 48.646 C 265.801 48.646,265.879 48.380,265.879 48.055 C 265.879 47.730,265.968 47.464,266.076 47.464 C 266.197 47.464,266.273 46.516,266.273 45.014 C 266.273 43.593,266.190 42.513,266.076 42.442 C 265.968 42.375,265.879 42.065,265.879 41.753 C 265.879 41.441,265.790 41.130,265.682 41.064 C 265.574 40.997,265.485 40.770,265.485 40.560 C 265.485 40.349,265.396 40.177,265.288 40.177 C 265.180 40.177,265.091 40.044,265.091 39.882 C 265.091 39.719,265.002 39.586,264.894 39.586 C 264.786 39.586,264.697 39.486,264.697 39.364 C 264.697 39.061,263.152 37.576,262.482 37.235 C 262.184 37.084,261.940 36.886,261.940 36.796 C 261.940 36.706,261.763 36.632,261.546 36.632 C 261.329 36.632,261.152 36.544,261.152 36.435 C 261.152 36.327,260.886 36.238,260.561 36.238 C 260.236 36.238,259.970 36.150,259.970 36.041 C 259.970 35.933,259.616 35.844,259.183 35.844 C 258.749 35.844,258.395 35.756,258.395 35.647 C 258.395 35.533,257.738 35.451,256.819 35.451 C 255.900 35.451,255.244 35.533,255.244 35.647 M170.162 70.704 C 170.162 70.818,169.543 70.901,168.697 70.901 C 167.891 70.901,167.177 70.990,167.110 71.098 C 167.043 71.206,166.550 71.295,166.015 71.295 C 165.480 71.295,165.042 71.384,165.042 71.492 C 165.042 71.600,164.648 71.689,164.167 71.689 C 163.686 71.689,163.238 71.777,163.171 71.886 C 163.104 71.994,162.749 72.083,162.383 72.083 C 162.017 72.083,161.662 72.171,161.595 72.280 C 161.528 72.388,161.213 72.477,160.894 72.477 C 160.576 72.477,160.315 72.565,160.315 72.674 C 160.315 72.782,160.049 72.871,159.724 72.871 C 159.399 72.871,159.133 72.959,159.133 73.067 C 159.133 73.176,158.955 73.264,158.737 73.264 C 158.519 73.264,158.186 73.343,157.998 73.438 C 157.810 73.534,157.390 73.722,157.065 73.855 C 156.741 73.989,156.321 74.176,156.133 74.272 C 155.945 74.368,155.657 74.446,155.493 74.446 C 155.329 74.446,155.194 74.535,155.194 74.643 C 155.194 74.751,155.017 74.840,154.801 74.840 C 154.584 74.840,154.407 74.929,154.407 75.037 C 154.407 75.145,154.229 75.234,154.013 75.234 C 153.796 75.234,153.619 75.306,153.619 75.394 C 153.619 75.482,153.309 75.676,152.930 75.825 C 152.550 75.973,152.240 76.167,152.240 76.255 C 152.240 76.343,152.063 76.416,151.846 76.416 C 151.630 76.416,151.452 76.504,151.452 76.613 C 151.452 76.721,151.316 76.809,151.149 76.809 C 150.982 76.809,150.655 76.987,150.422 77.203 C 150.190 77.420,149.883 77.597,149.741 77.597 C 149.599 77.597,149.483 77.686,149.483 77.794 C 149.483 77.903,149.325 77.991,149.133 77.991 C 148.940 77.991,148.654 78.168,148.498 78.385 C 148.342 78.602,148.114 78.779,147.992 78.779 C 147.869 78.779,147.491 79.045,147.151 79.370 C 146.811 79.695,146.443 79.961,146.335 79.961 C 146.226 79.961,145.684 80.404,145.131 80.945 C 144.578 81.487,144.045 81.930,143.946 81.930 C 143.711 81.930,140.650 84.995,140.072 85.808 C 139.826 86.154,139.340 86.738,138.990 87.106 C 137.989 88.163,137.280 89.097,137.276 89.365 C 137.274 89.500,137.199 89.611,137.109 89.611 C 137.019 89.611,136.819 89.855,136.665 90.153 C 136.512 90.451,136.231 90.866,136.041 91.076 C 135.852 91.286,135.697 91.574,135.697 91.716 C 135.697 91.858,135.622 91.974,135.531 91.974 C 135.439 91.974,135.151 92.395,134.891 92.910 C 134.630 93.424,134.350 93.875,134.269 93.911 C 134.188 93.947,134.121 94.147,134.121 94.354 C 134.121 94.562,134.032 94.732,133.924 94.732 C 133.816 94.732,133.727 94.909,133.727 95.126 C 133.727 95.342,133.639 95.519,133.530 95.519 C 133.422 95.519,133.333 95.697,133.333 95.913 C 133.333 96.130,133.245 96.307,133.136 96.307 C 133.028 96.307,132.939 96.424,132.939 96.566 C 132.939 96.708,132.762 97.191,132.546 97.639 C 132.329 98.088,132.152 98.592,132.152 98.760 C 132.152 98.927,132.082 99.065,131.998 99.065 C 131.913 99.065,131.723 99.485,131.575 100.000 C 131.427 100.515,131.243 101.024,131.165 101.132 C 131.087 101.241,130.973 101.551,130.912 101.822 C 130.850 102.093,130.713 102.624,130.607 103.003 C 129.915 105.467,129.765 106.168,129.656 107.463 C 129.589 108.260,129.458 108.912,129.365 108.912 C 129.273 108.912,129.197 109.621,129.197 110.487 C 129.197 111.407,129.115 112.063,129.000 112.063 C 128.874 112.063,128.804 114.131,128.804 117.873 C 128.804 121.615,128.874 123.683,129.000 123.683 C 129.115 123.683,129.197 124.339,129.197 125.258 C 129.197 126.125,129.273 126.834,129.366 126.834 C 129.458 126.834,129.585 127.432,129.647 128.163 C 129.756 129.439,130.071 131.023,130.382 131.856 C 130.463 132.073,130.826 133.181,131.188 134.318 C 131.551 135.455,131.916 136.416,132.000 136.452 C 132.083 136.488,132.152 136.647,132.152 136.806 C 132.152 136.965,132.329 137.461,132.546 137.910 C 132.762 138.358,132.939 138.841,132.939 138.983 C 132.939 139.125,133.028 139.242,133.136 139.242 C 133.245 139.242,133.333 139.419,133.333 139.636 C 133.333 139.852,133.422 140.030,133.530 140.030 C 133.639 140.030,133.727 140.207,133.727 140.423 C 133.727 140.640,133.816 140.817,133.924 140.817 C 134.032 140.817,134.121 140.995,134.121 141.211 C 134.121 141.428,134.210 141.605,134.318 141.605 C 134.426 141.605,134.515 141.721,134.515 141.863 C 134.515 142.005,134.692 142.312,134.909 142.544 C 135.126 142.777,135.303 143.104,135.303 143.271 C 135.303 143.438,135.391 143.575,135.500 143.575 C 135.608 143.575,135.697 143.691,135.697 143.833 C 135.697 143.975,135.874 144.281,136.091 144.514 C 136.307 144.746,136.485 145.007,136.485 145.093 C 136.485 145.178,136.751 145.559,137.075 145.938 C 137.400 146.317,137.665 146.703,137.666 146.794 C 137.666 146.886,137.932 147.210,138.257 147.514 C 138.582 147.817,138.848 148.160,138.848 148.275 C 138.848 148.528,145.074 154.801,145.325 154.801 C 145.423 154.801,145.787 155.066,146.135 155.391 C 146.483 155.716,146.833 155.982,146.913 155.982 C 146.993 155.982,147.316 156.204,147.631 156.474 C 147.945 156.745,148.273 156.967,148.359 156.967 C 148.445 156.967,148.705 157.144,148.938 157.361 C 149.170 157.578,149.477 157.755,149.619 157.755 C 149.761 157.755,149.877 157.826,149.877 157.913 C 149.877 158.000,150.319 158.288,150.859 158.553 C 151.399 158.818,151.842 159.101,151.843 159.183 C 151.845 159.264,152.024 159.330,152.240 159.330 C 152.457 159.330,152.634 159.412,152.634 159.512 C 152.634 159.611,152.899 159.751,153.223 159.822 C 153.546 159.893,153.862 160.033,153.924 160.133 C 153.985 160.233,154.208 160.315,154.418 160.315 C 154.629 160.315,154.801 160.404,154.801 160.512 C 154.801 160.620,154.978 160.709,155.194 160.709 C 155.411 160.709,155.588 160.798,155.588 160.906 C 155.588 161.014,155.760 161.103,155.971 161.103 C 156.181 161.103,156.408 161.192,156.475 161.300 C 156.542 161.408,156.813 161.497,157.077 161.497 C 157.342 161.497,157.558 161.585,157.558 161.694 C 157.558 161.802,157.779 161.891,158.050 161.891 C 158.321 161.891,158.543 161.979,158.543 162.088 C 158.543 162.196,158.759 162.285,159.023 162.285 C 159.288 162.285,159.559 162.373,159.626 162.482 C 159.693 162.590,160.003 162.678,160.315 162.678 C 160.627 162.678,160.937 162.767,161.004 162.875 C 161.071 162.984,161.387 163.072,161.705 163.072 C 162.024 163.072,162.285 163.161,162.285 163.269 C 162.285 163.378,162.639 163.466,163.072 163.466 C 163.506 163.466,163.860 163.555,163.860 163.663 C 163.860 163.772,164.303 163.860,164.845 163.860 C 165.387 163.860,165.830 163.949,165.830 164.057 C 165.830 164.168,166.384 164.254,167.098 164.254 C 167.796 164.254,168.421 164.343,168.488 164.451 C 168.558 164.563,169.541 164.648,170.765 164.648 C 172.070 164.648,172.920 164.726,172.920 164.845 C 172.920 164.967,174.003 165.042,175.775 165.042 C 177.548 165.042,178.631 164.967,178.631 164.845 C 178.631 164.726,179.485 164.648,180.798 164.648 C 182.111 164.648,182.964 164.570,182.964 164.451 C 182.964 164.338,183.555 164.254,184.343 164.254 C 185.130 164.254,185.721 164.170,185.721 164.057 C 185.721 163.949,186.115 163.860,186.596 163.860 C 187.077 163.860,187.525 163.772,187.592 163.663 C 187.659 163.555,188.063 163.466,188.490 163.466 C 188.917 163.466,189.266 163.378,189.266 163.269 C 189.266 163.161,189.532 163.072,189.857 163.072 C 190.182 163.072,190.448 162.984,190.448 162.875 C 190.448 162.767,190.758 162.678,191.137 162.678 C 191.516 162.678,191.827 162.590,191.827 162.482 C 191.827 162.373,192.093 162.285,192.418 162.285 C 192.742 162.285,193.008 162.196,193.008 162.088 C 193.008 161.979,193.230 161.891,193.501 161.891 C 193.772 161.891,193.993 161.802,193.993 161.694 C 193.993 161.585,194.209 161.497,194.474 161.497 C 194.738 161.497,195.009 161.408,195.076 161.300 C 195.143 161.192,195.370 161.103,195.580 161.103 C 195.791 161.103,195.963 161.014,195.963 160.906 C 195.963 160.798,196.140 160.709,196.356 160.709 C 196.573 160.709,196.750 160.620,196.750 160.512 C 196.750 160.404,196.928 160.315,197.144 160.315 C 197.361 160.315,197.538 160.226,197.538 160.118 C 197.538 160.010,197.693 159.918,197.883 159.915 C 198.354 159.905,201.274 158.401,201.674 157.961 C 201.728 157.901,202.016 157.727,202.314 157.573 C 202.612 157.420,202.856 157.221,202.856 157.131 C 202.856 157.041,202.967 156.967,203.102 156.967 C 203.237 156.967,203.606 156.745,203.920 156.474 C 204.235 156.204,204.564 155.982,204.652 155.982 C 204.740 155.982,205.122 155.672,205.501 155.293 C 205.881 154.914,206.280 154.604,206.390 154.604 C 206.657 154.604,212.703 148.546,212.703 148.277 C 212.703 148.161,212.969 147.817,213.294 147.514 C 213.619 147.210,213.885 146.839,213.885 146.690 C 213.885 146.541,214.062 146.291,214.279 146.135 C 214.495 145.979,214.673 145.754,214.673 145.636 C 214.673 145.518,214.828 145.250,215.017 145.040 C 215.207 144.830,215.488 144.414,215.641 144.116 C 215.795 143.818,215.994 143.575,216.084 143.575 C 216.175 143.575,216.248 143.405,216.248 143.197 C 216.248 142.989,216.315 142.790,216.396 142.754 C 216.581 142.672,217.220 141.623,217.366 141.162 C 217.427 140.972,217.554 140.817,217.650 140.817 C 217.745 140.817,217.824 140.640,217.824 140.423 C 217.824 140.207,217.912 140.030,218.021 140.030 C 218.129 140.030,218.218 139.852,218.218 139.636 C 218.218 139.419,218.306 139.242,218.415 139.242 C 218.523 139.242,218.612 139.070,218.612 138.859 C 218.612 138.649,218.700 138.422,218.808 138.355 C 218.917 138.289,219.005 138.017,219.005 137.753 C 219.005 137.489,219.094 137.272,219.202 137.272 C 219.311 137.272,219.399 137.095,219.399 136.878 C 219.399 136.662,219.488 136.484,219.596 136.484 C 219.705 136.484,219.793 136.219,219.793 135.894 C 219.793 135.569,219.882 135.303,219.990 135.303 C 220.098 135.303,220.187 135.086,220.187 134.822 C 220.187 134.558,220.276 134.287,220.384 134.220 C 220.492 134.153,220.581 133.887,220.581 133.629 C 220.581 133.371,220.670 133.105,220.778 133.038 C 220.886 132.971,220.975 132.705,220.975 132.447 C 220.975 132.189,221.064 131.923,221.172 131.856 C 221.280 131.789,221.369 131.447,221.369 131.096 C 221.369 130.745,221.448 130.374,221.546 130.271 C 221.643 130.168,221.772 129.729,221.833 129.296 C 221.894 128.863,222.041 127.976,222.160 127.326 C 222.669 124.531,222.790 122.701,222.785 117.873 C 222.780 112.502,222.657 110.062,222.357 109.404 C 222.258 109.188,222.131 108.612,222.075 108.124 C 221.864 106.305,221.716 105.558,221.545 105.452 C 221.448 105.393,221.369 105.044,221.369 104.677 C 221.369 104.311,221.280 103.957,221.172 103.890 C 221.064 103.823,220.975 103.507,220.975 103.189 C 220.975 102.870,220.886 102.610,220.778 102.610 C 220.670 102.610,220.581 102.344,220.581 102.019 C 220.581 101.694,220.492 101.428,220.384 101.428 C 220.276 101.428,220.187 101.162,220.187 100.837 C 220.187 100.512,220.098 100.246,219.990 100.246 C 219.882 100.246,219.793 100.030,219.793 99.765 C 219.793 99.501,219.705 99.230,219.596 99.163 C 219.488 99.096,219.399 98.869,219.399 98.659 C 219.399 98.449,219.311 98.277,219.202 98.277 C 219.094 98.277,219.005 98.160,219.005 98.018 C 219.005 97.748,218.487 96.560,217.785 95.224 C 217.557 94.791,217.274 94.238,217.154 93.995 C 217.035 93.752,216.871 93.552,216.790 93.552 C 216.709 93.551,216.642 93.373,216.642 93.156 C 216.642 92.939,216.553 92.762,216.445 92.762 C 216.337 92.762,216.248 92.646,216.248 92.504 C 216.248 92.362,216.093 92.074,215.903 91.864 C 215.714 91.654,215.433 91.238,215.279 90.940 C 215.126 90.643,214.926 90.399,214.836 90.399 C 214.746 90.399,214.673 90.283,214.673 90.141 C 214.673 89.998,214.495 89.692,214.279 89.459 C 214.062 89.227,213.885 88.982,213.885 88.916 C 213.885 88.849,213.774 88.683,213.639 88.545 C 213.503 88.407,213.171 87.998,212.900 87.636 C 212.264 86.784,206.263 80.748,206.053 80.748 C 205.965 80.748,205.501 80.394,205.022 79.961 C 204.543 79.527,204.057 79.173,203.941 79.173 C 203.825 79.173,203.603 78.996,203.447 78.779 C 203.290 78.562,203.025 78.385,202.856 78.385 C 202.687 78.385,202.421 78.208,202.265 77.991 C 202.109 77.774,201.823 77.597,201.631 77.597 C 201.438 77.597,201.280 77.509,201.280 77.400 C 201.280 77.292,201.164 77.203,201.022 77.203 C 200.880 77.203,200.592 77.048,200.382 76.858 C 200.172 76.669,199.557 76.292,199.015 76.021 C 198.474 75.751,198.001 75.463,197.965 75.382 C 197.929 75.300,197.729 75.234,197.522 75.234 C 197.314 75.234,197.144 75.145,197.144 75.037 C 197.144 74.929,196.967 74.840,196.750 74.840 C 196.534 74.840,196.356 74.751,196.356 74.643 C 196.356 74.535,196.184 74.446,195.974 74.446 C 195.764 74.446,195.537 74.357,195.470 74.249 C 195.403 74.141,195.132 74.052,194.868 74.052 C 194.603 74.052,194.387 73.964,194.387 73.855 C 194.387 73.747,194.215 73.658,194.005 73.658 C 193.794 73.658,193.568 73.570,193.501 73.461 C 193.434 73.353,193.163 73.264,192.898 73.264 C 192.634 73.264,192.418 73.176,192.418 73.067 C 192.418 72.959,192.157 72.871,191.838 72.871 C 191.520 72.871,191.204 72.782,191.137 72.674 C 191.070 72.565,190.760 72.477,190.448 72.477 C 190.136 72.477,189.826 72.388,189.759 72.280 C 189.692 72.171,189.382 72.083,189.069 72.083 C 188.757 72.083,188.447 71.994,188.380 71.886 C 188.313 71.777,187.865 71.689,187.384 71.689 C 186.903 71.689,186.509 71.600,186.509 71.492 C 186.509 71.384,186.071 71.295,185.536 71.295 C 185.001 71.295,184.508 71.206,184.441 71.098 C 184.374 70.990,183.660 70.901,182.854 70.901 C 182.008 70.901,181.388 70.818,181.388 70.704 C 181.388 70.577,179.386 70.507,175.775 70.507 C 172.165 70.507,170.162 70.577,170.162 70.704 M254.850 71.492 C 254.850 71.600,254.584 71.689,254.259 71.689 C 253.934 71.689,253.668 71.777,253.668 71.886 C 253.668 71.994,253.491 72.083,253.274 72.083 C 253.058 72.083,252.880 72.171,252.880 72.280 C 252.880 72.388,252.758 72.477,252.608 72.477 C 252.458 72.477,252.010 72.853,251.613 73.314 C 250.559 74.536,250.517 74.598,250.517 74.930 C 250.517 75.097,250.428 75.234,250.320 75.234 C 250.212 75.234,250.123 75.495,250.123 75.813 C 250.123 76.132,250.034 76.447,249.926 76.514 C 249.796 76.595,249.729 90.528,249.729 117.676 C 249.729 144.824,249.796 158.757,249.926 158.838 C 250.034 158.905,250.123 159.173,250.123 159.434 C 250.123 160.397,252.219 163.072,252.974 163.072 C 253.139 163.072,253.274 163.161,253.274 163.269 C 253.274 163.378,253.444 163.466,253.652 163.466 C 253.859 163.466,254.060 163.559,254.098 163.673 C 254.142 163.805,255.139 163.881,256.819 163.881 C 258.499 163.881,259.497 163.805,259.540 163.673 C 259.578 163.559,259.779 163.466,259.987 163.466 C 260.194 163.466,260.364 163.378,260.364 163.269 C 260.364 163.161,260.504 163.072,260.675 163.072 C 261.047 163.072,262.455 161.652,262.630 161.100 C 262.698 160.885,262.837 160.709,262.938 160.709 C 263.039 160.709,263.122 160.493,263.122 160.228 C 263.122 159.964,263.210 159.693,263.319 159.626 C 263.449 159.545,263.516 145.349,263.516 117.676 C 263.516 90.003,263.449 75.807,263.319 75.726 C 263.210 75.659,263.122 75.433,263.122 75.222 C 263.122 75.012,263.033 74.840,262.925 74.840 C 262.816 74.840,262.728 74.701,262.728 74.532 C 262.728 74.131,260.680 72.083,260.279 72.083 C 260.109 72.083,259.970 71.994,259.970 71.886 C 259.970 71.777,259.705 71.689,259.380 71.689 C 259.055 71.689,258.789 71.600,258.789 71.492 C 258.789 71.374,258.001 71.295,256.819 71.295 C 255.638 71.295,254.850 71.374,254.850 71.492 M66.470 83.481 C 67.228 83.596,68.247 83.747,68.735 83.815 C 69.222 83.884,69.705 84.019,69.808 84.117 C 69.911 84.214,70.282 84.293,70.633 84.293 C 70.984 84.293,71.326 84.382,71.393 84.490 C 71.460 84.599,71.726 84.687,71.984 84.687 C 72.242 84.687,72.508 84.776,72.575 84.884 C 72.642 84.993,72.913 85.081,73.178 85.081 C 73.442 85.081,73.658 85.150,73.658 85.235 C 73.658 85.386,75.720 86.066,76.179 86.066 C 76.309 86.066,76.416 86.155,76.416 86.263 C 76.416 86.371,76.593 86.460,76.809 86.460 C 77.026 86.460,77.203 86.548,77.203 86.657 C 77.203 86.765,77.361 86.854,77.554 86.854 C 77.746 86.854,78.032 87.031,78.188 87.248 C 78.344 87.464,78.630 87.642,78.822 87.642 C 79.015 87.642,79.173 87.730,79.173 87.839 C 79.173 87.947,79.331 88.035,79.523 88.035 C 79.716 88.035,80.001 88.213,80.158 88.429 C 80.314 88.646,80.564 88.823,80.713 88.823 C 80.862 88.823,81.233 89.089,81.536 89.414 C 81.840 89.739,82.176 90.005,82.283 90.005 C 82.591 90.005,88.035 95.556,88.036 95.871 C 88.036 95.949,88.302 96.322,88.626 96.701 C 88.951 97.080,89.216 97.461,89.217 97.546 C 89.217 97.632,89.394 97.893,89.611 98.125 C 89.828 98.358,90.005 98.664,90.005 98.806 C 90.005 98.948,90.094 99.065,90.202 99.065 C 90.310 99.065,90.399 99.242,90.399 99.458 C 90.399 99.675,90.465 99.853,90.547 99.853 C 90.628 99.853,90.916 100.341,91.187 100.935 C 91.457 101.530,91.745 102.018,91.827 102.018 C 91.908 102.018,91.974 102.191,91.974 102.401 C 91.974 102.611,92.063 102.838,92.171 102.905 C 92.280 102.972,92.368 103.199,92.368 103.409 C 92.368 103.619,92.457 103.791,92.565 103.791 C 92.674 103.791,92.762 103.970,92.762 104.188 C 92.762 104.406,92.865 104.783,92.990 105.025 C 93.488 105.988,93.550 106.168,93.550 106.644 C 93.550 106.917,93.639 107.139,93.747 107.139 C 93.855 107.139,93.944 107.400,93.944 107.719 C 93.944 108.037,94.032 108.353,94.141 108.419 C 94.249 108.486,94.338 108.935,94.338 109.416 C 94.338 109.897,94.426 110.290,94.535 110.290 C 94.644 110.290,94.732 110.816,94.732 111.472 C 94.732 112.129,94.819 112.654,94.929 112.654 C 95.055 112.654,95.126 114.426,95.126 117.578 C 95.126 120.729,95.055 122.501,94.929 122.501 C 94.819 122.501,94.732 123.026,94.732 123.683 C 94.732 124.339,94.644 124.865,94.535 124.865 C 94.426 124.865,94.338 125.308,94.338 125.849 C 94.338 126.391,94.249 126.834,94.141 126.834 C 94.032 126.834,93.944 127.095,93.944 127.413 C 93.944 127.732,93.855 128.047,93.747 128.114 C 93.639 128.181,93.550 128.453,93.550 128.719 C 93.550 128.985,93.461 129.379,93.353 129.594 C 93.245 129.809,93.067 130.161,92.959 130.376 C 92.851 130.592,92.762 130.946,92.762 131.164 C 92.762 131.382,92.674 131.561,92.565 131.561 C 92.457 131.561,92.368 131.738,92.368 131.955 C 92.368 132.171,92.280 132.349,92.171 132.349 C 92.063 132.349,91.974 132.479,91.974 132.639 C 91.974 133.035,91.146 134.712,90.950 134.712 C 90.864 134.712,90.793 134.889,90.793 135.106 C 90.793 135.323,90.704 135.500,90.596 135.500 C 90.487 135.500,90.399 135.677,90.399 135.894 C 90.399 136.110,90.310 136.288,90.202 136.288 C 90.094 136.288,90.005 136.380,90.005 136.493 C 90.005 136.606,89.828 136.888,89.611 137.121 C 89.394 137.353,89.217 137.660,89.217 137.802 C 89.217 137.944,89.148 138.060,89.063 138.060 C 88.978 138.060,88.758 138.315,88.573 138.627 C 88.389 138.938,87.959 139.492,87.618 139.858 C 87.276 140.223,86.765 140.832,86.482 141.211 C 86.199 141.590,85.549 142.299,85.038 142.787 C 82.638 145.073,82.107 145.544,81.925 145.544 C 81.818 145.544,81.451 145.810,81.111 146.135 C 80.771 146.460,80.373 146.726,80.227 146.726 C 80.080 146.726,79.961 146.804,79.961 146.899 C 79.961 146.994,79.695 147.182,79.370 147.317 C 79.045 147.451,78.779 147.639,78.779 147.734 C 78.779 147.830,78.602 147.907,78.385 147.907 C 78.168 147.907,77.991 147.996,77.991 148.104 C 77.991 148.213,77.814 148.301,77.597 148.301 C 77.381 148.301,77.203 148.368,77.202 148.449 C 77.200 148.626,76.246 149.089,75.884 149.089 C 75.743 149.089,75.628 149.178,75.628 149.286 C 75.628 149.394,75.451 149.483,75.234 149.483 C 75.017 149.483,74.840 149.572,74.840 149.680 C 74.840 149.788,74.663 149.877,74.446 149.877 C 74.229 149.877,74.052 149.966,74.052 150.074 C 74.052 150.182,73.786 150.271,73.461 150.271 C 73.136 150.271,72.871 150.359,72.871 150.468 C 72.871 150.576,72.605 150.665,72.280 150.665 C 71.955 150.665,71.689 150.753,71.689 150.862 C 71.689 150.970,71.423 151.059,71.098 151.059 C 70.773 151.059,70.507 151.147,70.507 151.256 C 70.507 151.364,70.114 151.452,69.632 151.452 C 69.151 151.452,68.703 151.541,68.636 151.649 C 68.569 151.758,68.077 151.846,67.541 151.846 C 67.006 151.846,66.568 151.935,66.568 152.043 C 66.568 152.170,64.730 152.240,61.448 152.240 C 58.165 152.240,56.327 152.170,56.327 152.043 C 56.327 151.935,55.839 151.846,55.244 151.846 C 54.648 151.846,54.161 151.758,54.161 151.649 C 54.161 151.541,53.806 151.452,53.373 151.452 C 52.939 151.452,52.585 151.364,52.585 151.256 C 52.585 151.147,52.319 151.059,51.994 151.059 C 51.669 151.059,51.403 150.970,51.403 150.862 C 51.403 150.753,51.137 150.665,50.812 150.665 C 50.487 150.665,50.222 150.576,50.222 150.468 C 50.222 150.359,49.956 150.271,49.631 150.271 C 49.306 150.271,49.040 150.182,49.040 150.074 C 49.040 149.966,48.863 149.877,48.646 149.877 C 48.429 149.877,48.252 149.788,48.252 149.680 C 48.252 149.572,48.075 149.483,47.858 149.483 C 47.642 149.483,47.464 149.394,47.464 149.286 C 47.464 149.178,47.349 149.089,47.208 149.089 C 46.846 149.089,45.892 148.626,45.890 148.449 C 45.889 148.368,45.711 148.301,45.495 148.301 C 45.278 148.301,45.101 148.213,45.101 148.104 C 45.101 147.996,44.964 147.907,44.797 147.907 C 44.630 147.907,44.303 147.730,44.071 147.514 C 43.838 147.297,43.532 147.120,43.390 147.120 C 43.248 147.120,43.131 147.046,43.131 146.956 C 43.131 146.866,42.888 146.667,42.590 146.513 C 42.292 146.359,41.845 146.034,41.596 145.790 C 41.348 145.547,41.062 145.347,40.961 145.347 C 40.684 145.347,35.388 140.003,35.106 139.439 C 34.971 139.168,34.556 138.548,34.184 138.060 C 33.812 137.573,33.501 137.063,33.494 136.928 C 33.487 136.792,33.403 136.681,33.308 136.681 C 33.213 136.681,33.025 136.416,32.890 136.091 C 32.756 135.766,32.568 135.500,32.472 135.500 C 32.377 135.500,32.299 135.323,32.299 135.106 C 32.299 134.889,32.211 134.712,32.102 134.712 C 31.994 134.712,31.905 134.535,31.905 134.318 C 31.905 134.101,31.817 133.924,31.709 133.924 C 31.600 133.924,31.512 133.747,31.512 133.530 C 31.512 133.314,31.423 133.136,31.315 133.136 C 31.206 133.136,31.118 132.959,31.118 132.742 C 31.118 132.526,31.029 132.349,30.921 132.349 C 30.812 132.349,30.724 132.170,30.724 131.952 C 30.724 131.734,30.635 131.379,30.527 131.164 C 30.419 130.949,30.241 130.597,30.133 130.382 C 30.025 130.167,29.936 129.812,29.936 129.594 C 29.936 129.376,29.847 129.197,29.739 129.197 C 29.631 129.197,29.542 128.892,29.542 128.520 C 29.542 128.147,29.463 127.793,29.367 127.734 C 29.193 127.626,29.033 126.913,28.824 125.308 C 28.764 124.847,28.635 124.471,28.538 124.471 C 28.440 124.471,28.360 123.811,28.360 123.005 C 28.360 122.199,28.272 121.485,28.163 121.418 C 27.896 121.253,27.896 113.442,28.163 113.442 C 28.273 113.442,28.360 112.916,28.360 112.260 C 28.360 111.603,28.448 111.078,28.557 111.078 C 28.666 111.078,28.754 110.635,28.754 110.094 C 28.754 109.552,28.843 109.109,28.951 109.109 C 29.060 109.109,29.148 108.804,29.148 108.431 C 29.148 108.058,29.237 107.699,29.345 107.632 C 29.453 107.565,29.542 107.255,29.542 106.942 C 29.542 106.630,29.631 106.320,29.739 106.253 C 29.847 106.186,29.936 105.958,29.936 105.746 C 29.936 105.375,30.007 105.183,30.496 104.237 C 30.621 103.995,30.724 103.618,30.724 103.400 C 30.724 103.182,30.812 103.003,30.921 103.003 C 31.029 103.003,31.118 102.826,31.118 102.610 C 31.118 102.393,31.206 102.216,31.315 102.216 C 31.423 102.216,31.512 102.038,31.512 101.822 C 31.512 101.605,31.600 101.428,31.709 101.428 C 31.817 101.428,31.905 101.251,31.905 101.034 C 31.905 100.817,31.994 100.640,32.102 100.640 C 32.211 100.640,32.299 100.463,32.299 100.246 C 32.299 100.030,32.378 99.852,32.473 99.852 C 32.569 99.852,32.697 99.697,32.757 99.508 C 32.889 99.089,33.488 98.092,33.826 97.727 C 33.961 97.581,34.072 97.391,34.072 97.305 C 34.072 97.219,34.336 96.848,34.660 96.482 C 34.983 96.115,35.249 95.710,35.250 95.581 C 35.254 95.318,40.070 90.399,40.324 90.399 C 40.414 90.399,40.880 90.044,41.359 89.611 C 41.838 89.178,42.324 88.823,42.440 88.823 C 42.556 88.823,42.778 88.646,42.935 88.429 C 43.091 88.213,43.376 88.035,43.569 88.035 C 43.762 88.035,43.919 87.947,43.919 87.839 C 43.919 87.730,44.077 87.642,44.270 87.642 C 44.462 87.642,44.748 87.464,44.904 87.248 C 45.060 87.031,45.346 86.854,45.538 86.854 C 45.731 86.854,45.889 86.765,45.889 86.657 C 45.889 86.548,46.066 86.460,46.283 86.460 C 46.499 86.460,46.677 86.381,46.677 86.285 C 46.677 86.189,46.998 86.050,47.390 85.976 C 47.783 85.902,48.248 85.770,48.424 85.682 C 49.027 85.380,49.729 85.107,50.517 84.870 C 50.950 84.740,51.482 84.563,51.699 84.478 C 51.915 84.393,52.358 84.267,52.683 84.199 C 53.008 84.131,53.673 83.985,54.161 83.875 C 54.648 83.765,55.638 83.614,56.361 83.540 C 57.083 83.466,57.744 83.336,57.829 83.251 C 58.040 83.040,64.752 83.219,66.470 83.481 M179.517 83.309 C 179.584 83.417,180.205 83.506,180.896 83.506 C 181.587 83.506,182.208 83.594,182.275 83.703 C 182.342 83.811,182.785 83.900,183.259 83.900 C 183.734 83.900,184.177 83.988,184.244 84.097 C 184.311 84.205,184.554 84.293,184.783 84.293 C 185.227 84.293,186.381 84.621,186.950 84.908 C 187.138 85.003,187.379 85.081,187.485 85.081 C 187.592 85.081,188.164 85.303,188.756 85.574 C 189.348 85.844,189.918 86.066,190.023 86.066 C 190.287 86.066,191.910 86.919,191.991 87.100 C 192.027 87.181,192.226 87.248,192.434 87.248 C 192.642 87.248,192.811 87.336,192.811 87.445 C 192.811 87.553,192.969 87.642,193.162 87.642 C 193.355 87.642,193.640 87.819,193.796 88.035 C 193.952 88.252,194.218 88.429,194.387 88.429 C 194.556 88.429,194.822 88.607,194.978 88.823 C 195.134 89.040,195.384 89.217,195.533 89.217 C 195.682 89.217,196.053 89.483,196.356 89.808 C 196.660 90.133,197.000 90.399,197.111 90.399 C 197.470 90.399,200.758 93.790,201.504 94.929 C 201.681 95.199,202.058 95.687,202.341 96.012 C 202.624 96.337,202.855 96.694,202.855 96.805 C 202.856 96.917,203.033 97.136,203.250 97.292 C 203.466 97.448,203.644 97.734,203.644 97.926 C 203.644 98.119,203.721 98.277,203.817 98.277 C 203.912 98.277,204.100 98.543,204.234 98.868 C 204.369 99.193,204.557 99.458,204.652 99.458 C 204.747 99.458,204.825 99.636,204.825 99.852 C 204.825 100.069,204.914 100.246,205.022 100.246 C 205.130 100.246,205.219 100.423,205.219 100.640 C 205.219 100.857,205.308 101.034,205.416 101.034 C 205.524 101.034,205.613 101.211,205.613 101.428 C 205.613 101.645,205.702 101.822,205.810 101.822 C 205.918 101.822,206.007 101.999,206.007 102.216 C 206.007 102.432,206.096 102.610,206.204 102.610 C 206.312 102.610,206.401 102.826,206.401 103.090 C 206.401 103.355,206.489 103.626,206.598 103.693 C 206.706 103.760,206.795 103.987,206.795 104.197 C 206.795 104.407,206.883 104.579,206.992 104.579 C 207.100 104.579,207.189 104.795,207.189 105.060 C 207.189 105.324,207.277 105.595,207.386 105.662 C 207.494 105.729,207.582 105.995,207.582 106.253 C 207.582 106.511,207.671 106.777,207.779 106.844 C 207.888 106.911,207.976 107.265,207.976 107.632 C 207.976 107.998,208.056 108.347,208.153 108.407 C 208.349 108.528,208.537 109.575,208.693 111.423 C 208.751 112.100,208.879 112.654,208.978 112.654 C 209.082 112.654,209.158 114.810,209.158 117.774 C 209.158 121.057,209.087 122.895,208.961 122.895 C 208.852 122.895,208.764 123.420,208.764 124.077 C 208.764 124.733,208.677 125.258,208.567 125.258 C 208.459 125.258,208.370 125.702,208.370 126.243 C 208.370 126.785,208.282 127.228,208.173 127.228 C 208.065 127.228,207.976 127.451,207.976 127.723 C 207.976 127.995,207.896 128.372,207.799 128.560 C 207.701 128.748,207.508 129.301,207.370 129.788 C 207.233 130.276,207.047 130.759,206.957 130.862 C 206.868 130.965,206.795 131.253,206.795 131.502 C 206.795 131.751,206.706 131.955,206.598 131.955 C 206.489 131.955,206.401 132.132,206.401 132.349 C 206.401 132.565,206.312 132.742,206.204 132.742 C 206.096 132.742,206.007 132.885,206.007 133.060 C 206.007 133.355,204.874 135.676,204.623 135.894 C 204.560 135.948,204.360 136.312,204.179 136.704 C 203.997 137.095,203.713 137.527,203.549 137.663 C 203.384 137.800,203.250 137.988,203.250 138.082 C 203.250 138.408,200.568 141.742,199.388 142.884 C 197.711 144.506,196.518 145.544,196.330 145.544 C 196.215 145.544,195.872 145.810,195.569 146.135 C 195.265 146.460,194.895 146.726,194.745 146.726 C 194.596 146.726,194.346 146.903,194.190 147.120 C 194.034 147.336,193.748 147.514,193.556 147.514 C 193.363 147.514,193.205 147.602,193.205 147.710 C 193.205 147.819,193.028 147.907,192.811 147.907 C 192.595 147.907,192.418 147.986,192.418 148.081 C 192.418 148.177,192.262 148.305,192.073 148.365 C 191.883 148.425,191.462 148.626,191.137 148.811 C 190.195 149.350,189.882 149.483,189.564 149.483 C 189.401 149.483,189.266 149.572,189.266 149.680 C 189.266 149.788,189.089 149.877,188.872 149.877 C 188.656 149.877,188.479 149.966,188.479 150.074 C 188.479 150.182,188.213 150.271,187.888 150.271 C 187.563 150.271,187.297 150.359,187.297 150.468 C 187.297 150.576,187.031 150.665,186.706 150.665 C 186.381 150.665,186.115 150.753,186.115 150.862 C 186.115 150.970,185.849 151.059,185.524 151.059 C 185.199 151.059,184.934 151.147,184.934 151.256 C 184.934 151.364,184.535 151.452,184.047 151.452 C 183.560 151.452,183.161 151.541,183.161 151.649 C 183.161 151.758,182.674 151.846,182.078 151.846 C 181.482 151.846,180.995 151.935,180.995 152.043 C 180.995 152.170,179.124 152.240,175.775 152.240 C 172.427 152.240,170.556 152.170,170.556 152.043 C 170.556 151.935,170.118 151.846,169.583 151.846 C 169.048 151.846,168.555 151.758,168.488 151.649 C 168.421 151.541,168.067 151.452,167.701 151.452 C 167.334 151.452,166.980 151.364,166.913 151.256 C 166.846 151.147,166.486 151.059,166.113 151.059 C 165.741 151.059,165.436 150.970,165.436 150.862 C 165.436 150.753,165.170 150.665,164.845 150.665 C 164.520 150.665,164.254 150.576,164.254 150.468 C 164.254 150.359,164.038 150.271,163.773 150.271 C 163.509 150.271,163.238 150.182,163.171 150.074 C 163.104 149.966,162.877 149.877,162.667 149.877 C 162.457 149.877,162.285 149.788,162.285 149.680 C 162.285 149.572,162.107 149.483,161.891 149.483 C 161.674 149.483,161.497 149.394,161.497 149.286 C 161.497 149.178,161.320 149.089,161.103 149.089 C 160.886 149.089,160.709 149.000,160.709 148.892 C 160.709 148.784,160.532 148.695,160.315 148.695 C 160.098 148.695,159.921 148.607,159.921 148.498 C 159.921 148.390,159.744 148.301,159.527 148.301 C 159.311 148.301,159.133 148.213,159.133 148.104 C 159.133 147.996,158.956 147.907,158.740 147.907 C 158.523 147.907,158.346 147.830,158.346 147.734 C 158.346 147.639,158.080 147.451,157.755 147.317 C 157.430 147.182,157.164 146.994,157.164 146.899 C 157.164 146.804,157.044 146.726,156.898 146.726 C 156.751 146.726,156.353 146.460,156.013 146.135 C 155.673 145.810,155.307 145.544,155.199 145.544 C 155.016 145.544,154.356 144.958,152.087 142.781 C 151.576 142.290,150.760 141.404,150.275 140.811 C 149.789 140.219,149.324 139.705,149.241 139.668 C 149.157 139.632,149.089 139.485,149.089 139.340 C 149.089 139.196,149.016 139.048,148.926 139.012 C 148.698 138.920,146.726 135.956,146.726 135.706 C 146.726 135.592,146.637 135.500,146.529 135.500 C 146.420 135.500,146.332 135.323,146.332 135.106 C 146.332 134.889,146.243 134.712,146.135 134.712 C 146.027 134.712,145.938 134.535,145.938 134.318 C 145.938 134.101,145.849 133.924,145.741 133.924 C 145.633 133.924,145.544 133.747,145.544 133.530 C 145.544 133.314,145.455 133.136,145.347 133.136 C 145.239 133.136,145.150 132.959,145.150 132.742 C 145.150 132.526,145.078 132.349,144.989 132.349 C 144.900 132.349,144.707 131.905,144.559 131.364 C 144.412 130.822,144.219 130.379,144.130 130.379 C 144.041 130.379,143.968 130.113,143.968 129.788 C 143.968 129.463,143.880 129.197,143.772 129.197 C 143.663 129.197,143.575 128.937,143.575 128.618 C 143.575 128.300,143.486 127.984,143.378 127.917 C 143.269 127.850,143.181 127.496,143.181 127.129 C 143.181 126.763,143.092 126.409,142.984 126.342 C 142.875 126.275,142.787 125.832,142.787 125.357 C 142.787 124.882,142.698 124.439,142.590 124.372 C 142.482 124.305,142.393 123.596,142.393 122.797 C 142.393 121.997,142.304 121.288,142.196 121.221 C 142.077 121.147,141.999 119.742,141.999 117.664 C 141.999 115.506,142.072 114.229,142.196 114.229 C 142.311 114.229,142.393 113.573,142.393 112.654 C 142.393 111.735,142.475 111.078,142.590 111.078 C 142.698 111.078,142.787 110.685,142.787 110.204 C 142.787 109.723,142.875 109.274,142.984 109.207 C 143.092 109.140,143.181 108.786,143.181 108.419 C 143.181 108.053,143.269 107.699,143.378 107.632 C 143.486 107.565,143.575 107.249,143.575 106.931 C 143.575 106.612,143.663 106.352,143.772 106.352 C 143.880 106.352,143.968 106.135,143.968 105.871 C 143.968 105.606,144.057 105.335,144.165 105.268 C 144.274 105.201,144.362 104.930,144.362 104.666 C 144.362 104.401,144.451 104.185,144.559 104.185 C 144.668 104.185,144.756 104.013,144.756 103.803 C 144.756 103.593,144.845 103.366,144.953 103.299 C 145.062 103.232,145.150 102.961,145.150 102.696 C 145.150 102.432,145.239 102.216,145.347 102.216 C 145.455 102.216,145.544 102.038,145.544 101.822 C 145.544 101.605,145.633 101.428,145.741 101.428 C 145.849 101.428,145.938 101.251,145.938 101.034 C 145.938 100.817,146.016 100.640,146.112 100.640 C 146.208 100.640,146.335 100.485,146.395 100.295 C 146.528 99.877,147.126 98.880,147.464 98.515 C 147.600 98.368,147.710 98.180,147.710 98.096 C 147.710 98.013,147.932 97.687,148.203 97.372 C 148.473 97.057,148.695 96.729,148.695 96.643 C 148.695 96.557,148.917 96.265,149.188 95.994 C 149.458 95.723,149.680 95.421,149.680 95.323 C 149.680 95.225,150.455 94.346,151.403 93.371 C 152.351 92.396,153.252 91.424,153.404 91.211 C 153.557 90.999,153.912 90.707,154.192 90.563 C 154.473 90.418,154.937 90.057,155.224 89.759 C 155.511 89.461,155.869 89.217,156.018 89.217 C 156.167 89.217,156.417 89.040,156.573 88.823 C 156.729 88.607,156.995 88.429,157.164 88.429 C 157.333 88.429,157.599 88.252,157.755 88.035 C 157.911 87.819,158.196 87.642,158.389 87.642 C 158.582 87.642,158.740 87.553,158.740 87.445 C 158.740 87.336,158.917 87.248,159.133 87.248 C 159.350 87.248,159.527 87.159,159.527 87.051 C 159.527 86.942,159.705 86.854,159.921 86.854 C 160.138 86.854,160.315 86.765,160.315 86.657 C 160.315 86.548,160.492 86.460,160.709 86.460 C 160.926 86.460,161.103 86.371,161.103 86.263 C 161.103 86.155,161.245 86.066,161.418 86.066 C 161.591 86.066,162.012 85.943,162.353 85.794 C 162.695 85.644,163.284 85.413,163.663 85.281 C 164.042 85.149,164.530 84.972,164.746 84.887 C 164.963 84.802,165.539 84.624,166.027 84.492 C 166.514 84.360,167.116 84.173,167.365 84.076 C 167.614 83.979,168.118 83.900,168.486 83.900 C 168.854 83.900,169.209 83.811,169.276 83.703 C 169.343 83.594,169.964 83.506,170.655 83.506 C 171.346 83.506,171.967 83.417,172.033 83.309 C 172.107 83.189,173.574 83.112,175.775 83.112 C 177.977 83.112,179.443 83.189,179.517 83.309 M342.097 83.309 C 342.097 83.420,342.652 83.506,343.366 83.506 C 344.064 83.506,344.689 83.594,344.756 83.703 C 344.823 83.811,345.179 83.900,345.546 83.900 C 345.914 83.900,346.418 83.979,346.667 84.076 C 346.916 84.173,347.518 84.361,348.006 84.493 C 348.993 84.761,350.732 85.376,351.679 85.793 C 352.021 85.943,352.442 86.066,352.615 86.066 C 352.788 86.066,352.930 86.155,352.930 86.263 C 352.930 86.371,353.107 86.460,353.323 86.460 C 353.540 86.460,353.717 86.548,353.717 86.657 C 353.717 86.765,353.895 86.854,354.111 86.854 C 354.328 86.854,354.505 86.942,354.505 87.051 C 354.505 87.159,354.642 87.248,354.809 87.248 C 354.976 87.248,355.303 87.425,355.535 87.642 C 355.768 87.858,356.074 88.035,356.216 88.035 C 356.358 88.035,356.475 88.124,356.475 88.232 C 356.475 88.341,356.594 88.429,356.741 88.429 C 356.887 88.429,357.285 88.695,357.625 89.020 C 357.965 89.345,358.339 89.611,358.455 89.611 C 358.571 89.611,359.082 90.034,359.589 90.552 C 360.097 91.069,360.822 91.711,361.201 91.978 C 361.943 92.501,362.761 93.351,362.771 93.612 C 362.774 93.700,363.220 94.204,363.762 94.732 C 364.303 95.259,364.746 95.743,364.746 95.807 C 364.746 95.903,365.726 97.431,366.272 98.187 C 366.635 98.689,367.143 99.586,367.243 99.902 C 367.303 100.091,367.431 100.246,367.527 100.246 C 367.622 100.246,367.701 100.423,367.701 100.640 C 367.701 100.857,367.789 101.034,367.898 101.034 C 368.006 101.034,368.095 101.211,368.095 101.428 C 368.095 101.645,368.183 101.822,368.291 101.822 C 368.400 101.822,368.488 101.956,368.488 102.120 C 368.488 102.284,368.567 102.572,368.662 102.760 C 368.758 102.948,368.946 103.368,369.079 103.693 C 369.213 104.018,369.400 104.437,369.496 104.626 C 369.592 104.814,369.670 105.146,369.670 105.364 C 369.670 105.582,369.759 105.761,369.867 105.761 C 369.975 105.761,370.064 106.021,370.064 106.340 C 370.064 106.658,370.153 106.974,370.261 107.041 C 370.369 107.108,370.458 107.418,370.458 107.730 C 370.458 108.042,370.547 108.353,370.655 108.419 C 370.763 108.486,370.852 108.935,370.852 109.416 C 370.852 109.897,370.940 110.290,371.049 110.290 C 371.158 110.290,371.246 110.816,371.246 111.472 C 371.246 112.129,371.333 112.654,371.443 112.654 C 371.569 112.654,371.640 114.455,371.640 117.664 C 371.640 120.792,371.566 122.721,371.443 122.797 C 371.334 122.864,371.246 123.395,371.246 123.978 C 371.246 124.561,371.157 125.093,371.049 125.160 C 370.940 125.227,370.852 125.631,370.852 126.058 C 370.852 126.485,370.763 126.834,370.655 126.834 C 370.547 126.834,370.458 127.189,370.458 127.622 C 370.458 128.055,370.369 128.410,370.261 128.410 C 370.153 128.410,370.064 128.676,370.064 129.000 C 370.064 129.325,369.975 129.591,369.867 129.591 C 369.759 129.591,369.670 129.808,369.670 130.072 C 369.670 130.336,369.581 130.608,369.473 130.675 C 369.365 130.741,369.276 130.968,369.276 131.179 C 369.276 131.389,369.204 131.561,369.115 131.561 C 369.026 131.561,368.833 132.004,368.685 132.546 C 368.538 133.087,368.345 133.530,368.256 133.530 C 368.167 133.530,368.095 133.708,368.095 133.924 C 368.095 134.141,368.028 134.319,367.947 134.321 C 367.866 134.323,367.582 134.766,367.317 135.306 C 367.052 135.846,366.764 136.288,366.677 136.288 C 366.590 136.288,366.519 136.388,366.519 136.510 C 366.519 136.633,366.209 137.165,365.830 137.692 C 365.451 138.220,365.140 138.740,365.140 138.848 C 365.140 138.956,365.052 139.045,364.943 139.045 C 364.835 139.045,364.746 139.142,364.746 139.261 C 364.746 139.380,364.481 139.726,364.156 140.030 C 363.831 140.333,363.565 140.679,363.565 140.798 C 363.565 140.917,363.476 141.014,363.368 141.014 C 363.259 141.014,363.171 141.107,363.171 141.221 C 363.171 141.464,360.471 144.165,360.228 144.165 C 360.136 144.165,359.639 144.564,359.123 145.052 C 358.607 145.539,358.085 145.938,357.964 145.938 C 357.843 145.938,357.616 146.115,357.459 146.332 C 357.303 146.548,357.037 146.726,356.869 146.726 C 356.700 146.726,356.434 146.903,356.278 147.120 C 356.122 147.336,355.836 147.514,355.643 147.514 C 355.451 147.514,355.293 147.602,355.293 147.710 C 355.293 147.819,355.177 147.907,355.035 147.907 C 354.893 147.907,354.586 148.085,354.354 148.301 C 354.121 148.518,353.794 148.695,353.627 148.695 C 353.460 148.695,353.323 148.784,353.323 148.892 C 353.323 149.000,353.146 149.089,352.930 149.089 C 352.713 149.089,352.536 149.178,352.536 149.286 C 352.536 149.394,352.364 149.483,352.153 149.483 C 351.943 149.483,351.716 149.572,351.649 149.680 C 351.582 149.788,351.311 149.877,351.047 149.877 C 350.783 149.877,350.566 149.966,350.566 150.074 C 350.566 150.182,350.345 150.271,350.074 150.271 C 349.803 150.271,349.581 150.359,349.581 150.468 C 349.581 150.576,349.365 150.665,349.101 150.665 C 348.836 150.665,348.565 150.753,348.498 150.862 C 348.431 150.970,348.072 151.059,347.699 151.059 C 347.326 151.059,347.021 151.147,347.021 151.256 C 347.021 151.364,346.667 151.452,346.233 151.452 C 345.800 151.452,345.446 151.541,345.446 151.649 C 345.446 151.758,344.958 151.846,344.362 151.846 C 343.767 151.846,343.279 151.935,343.279 152.043 C 343.279 152.169,341.478 152.240,338.269 152.240 C 335.141 152.240,333.212 152.166,333.136 152.043 C 333.069 151.935,332.577 151.846,332.042 151.846 C 331.506 151.846,331.068 151.758,331.068 151.649 C 331.068 151.541,330.714 151.452,330.281 151.452 C 329.847 151.452,329.493 151.364,329.493 151.256 C 329.493 151.147,329.138 151.059,328.705 151.059 C 328.272 151.059,327.917 150.970,327.917 150.862 C 327.917 150.753,327.651 150.665,327.326 150.665 C 327.001 150.665,326.736 150.576,326.736 150.468 C 326.736 150.359,326.558 150.271,326.342 150.271 C 326.125 150.271,325.948 150.182,325.948 150.074 C 325.948 149.966,325.682 149.877,325.357 149.877 C 325.032 149.877,324.766 149.788,324.766 149.680 C 324.766 149.572,324.589 149.483,324.372 149.483 C 324.156 149.483,323.978 149.394,323.978 149.286 C 323.978 149.178,323.801 149.089,323.584 149.089 C 323.368 149.089,323.191 149.000,323.191 148.892 C 323.191 148.784,323.013 148.695,322.797 148.695 C 322.580 148.695,322.403 148.607,322.403 148.498 C 322.403 148.390,322.226 148.301,322.009 148.301 C 321.792 148.301,321.615 148.223,321.615 148.128 C 321.615 148.033,321.349 147.845,321.024 147.710 C 320.699 147.576,320.433 147.388,320.433 147.293 C 320.433 147.198,320.276 147.120,320.083 147.120 C 319.890 147.120,319.605 146.942,319.449 146.726 C 319.292 146.509,319.043 146.332,318.893 146.332 C 318.744 146.332,318.373 146.066,318.070 145.741 C 317.766 145.416,317.443 145.150,317.351 145.150 C 317.110 145.149,312.520 140.454,311.962 139.636 C 311.703 139.257,311.438 138.902,311.374 138.848 C 311.309 138.794,311.043 138.439,310.783 138.060 C 310.523 137.681,310.261 137.326,310.201 137.272 C 310.142 137.218,309.960 136.908,309.798 136.583 C 309.636 136.258,309.348 135.820,309.158 135.610 C 308.968 135.400,308.813 135.112,308.813 134.970 C 308.813 134.828,308.725 134.712,308.616 134.712 C 308.508 134.712,308.419 134.535,308.419 134.318 C 308.419 134.101,308.331 133.924,308.223 133.924 C 308.114 133.924,308.026 133.747,308.026 133.530 C 308.026 133.314,307.937 133.136,307.829 133.136 C 307.720 133.136,307.632 132.920,307.632 132.656 C 307.632 132.391,307.543 132.120,307.435 132.053 C 307.326 131.986,307.238 131.759,307.238 131.549 C 307.238 131.339,307.149 131.167,307.041 131.167 C 306.933 131.167,306.844 130.951,306.844 130.686 C 306.844 130.422,306.755 130.151,306.647 130.084 C 306.539 130.017,306.450 129.751,306.450 129.493 C 306.450 129.235,306.361 128.969,306.253 128.902 C 306.145 128.835,306.056 128.520,306.056 128.201 C 306.056 127.883,305.968 127.622,305.859 127.622 C 305.751 127.622,305.662 127.267,305.662 126.834 C 305.662 126.401,305.574 126.046,305.465 126.046 C 305.357 126.046,305.268 125.603,305.268 125.062 C 305.268 124.520,305.180 124.077,305.071 124.077 C 304.957 124.077,304.874 123.420,304.874 122.501 C 304.874 121.582,304.792 120.926,304.677 120.926 C 304.554 120.926,304.481 119.678,304.481 117.578 C 304.481 115.477,304.554 114.229,304.677 114.229 C 304.792 114.229,304.874 113.573,304.874 112.654 C 304.874 111.735,304.957 111.078,305.071 111.078 C 305.180 111.078,305.268 110.635,305.268 110.094 C 305.268 109.552,305.357 109.109,305.465 109.109 C 305.574 109.109,305.662 108.804,305.662 108.431 C 305.662 108.058,305.751 107.699,305.859 107.632 C 305.968 107.565,306.056 107.249,306.056 106.931 C 306.056 106.612,306.145 106.352,306.253 106.352 C 306.361 106.352,306.450 106.135,306.450 105.871 C 306.450 105.606,306.539 105.335,306.647 105.268 C 306.755 105.201,306.844 104.930,306.844 104.666 C 306.844 104.401,306.933 104.185,307.041 104.185 C 307.149 104.185,307.238 104.013,307.238 103.803 C 307.238 103.593,307.326 103.366,307.435 103.299 C 307.543 103.232,307.632 102.961,307.632 102.696 C 307.632 102.432,307.720 102.216,307.829 102.216 C 307.937 102.216,308.026 102.038,308.026 101.822 C 308.026 101.605,308.114 101.428,308.223 101.428 C 308.331 101.428,308.419 101.251,308.419 101.034 C 308.419 100.817,308.508 100.640,308.616 100.640 C 308.725 100.640,308.813 100.524,308.813 100.382 C 308.813 100.240,308.991 99.933,309.207 99.701 C 309.424 99.468,309.601 99.141,309.601 98.974 C 309.601 98.807,309.679 98.671,309.774 98.671 C 309.869 98.671,310.057 98.405,310.192 98.080 C 310.327 97.755,310.500 97.489,310.577 97.489 C 310.653 97.489,310.842 97.247,310.996 96.951 C 311.149 96.655,311.519 96.154,311.817 95.838 C 312.115 95.522,312.358 95.188,312.358 95.094 C 312.358 94.904,316.816 90.399,317.004 90.399 C 317.070 90.399,317.372 90.133,317.676 89.808 C 317.980 89.483,318.350 89.217,318.499 89.217 C 318.649 89.217,318.899 89.040,319.055 88.823 C 319.211 88.607,319.477 88.429,319.645 88.429 C 319.814 88.429,320.080 88.252,320.236 88.035 C 320.392 87.819,320.678 87.642,320.871 87.642 C 321.063 87.642,321.221 87.553,321.221 87.445 C 321.221 87.336,321.398 87.248,321.615 87.248 C 321.832 87.248,322.009 87.159,322.009 87.051 C 322.009 86.942,322.186 86.854,322.403 86.854 C 322.619 86.854,322.797 86.765,322.797 86.657 C 322.797 86.548,322.974 86.460,323.191 86.460 C 323.407 86.460,323.584 86.371,323.584 86.263 C 323.584 86.155,323.726 86.066,323.899 86.066 C 324.073 86.066,324.494 85.943,324.835 85.794 C 325.176 85.644,325.766 85.413,326.145 85.281 C 326.524 85.149,327.011 84.974,327.228 84.892 C 328.172 84.533,329.059 84.293,329.446 84.293 C 329.676 84.293,329.918 84.205,329.985 84.097 C 330.052 83.988,330.451 83.900,330.871 83.900 C 331.292 83.900,331.691 83.811,331.758 83.703 C 331.825 83.594,332.445 83.506,333.136 83.506 C 333.828 83.506,334.448 83.417,334.515 83.309 C 334.589 83.189,336.093 83.112,338.367 83.112 C 340.723 83.112,342.097 83.184,342.097 83.309 " stroke="none" fill="#049cfc" fill-rule="evenodd"></path><path id="path1" d="" stroke="none" fill="#089cfc" fill-rule="evenodd"></path><path id="path2" d="" stroke="none" fill="#089cfc" fill-rule="evenodd"></path><path id="path3" d="" stroke="none" fill="#089cfc" fill-rule="evenodd"></path><path id="path4" d="" stroke="none" fill="#089cfc" fill-rule="evenodd"></path></g></svg>